<?xml version="1.0" encoding="UTF-8"?>
<!DOCTYPE svg PUBLIC "-//W3C//DTD SVG 1.1//EN" "http://www.w3.org/Graphics/SVG/1.1/DTD/svg11.dtd">
<!-- Creator: CorelDRAW -->
<svg xmlns="http://www.w3.org/2000/svg" xml:space="preserve" width="277.296mm" height="68.434mm" version="1.1" style="shape-rendering:geometricPrecision; text-rendering:geometricPrecision; image-rendering:optimizeQuality; fill-rule:evenodd; clip-rule:evenodd"
viewBox="0 0 27729.6 6843.4"
 xmlns:xlink="http://www.w3.org/1999/xlink"
 xmlns:xodm="http://www.corel.com/coreldraw/odm/2003">
 <defs>
  <style type="text/css">
   <![CDATA[
    .fil0 {fill:#EB0000;fill-rule:nonzero}
   ]]>
  </style>
 </defs>
 <g id="Camada_x0020_1">
  <metadata id="CorelCorpID_0Corel-Layer"/>
  <path class="fil0" d="M2242.79 7.13c-113.69,867.5 -227.73,1740.53 -338.3,2615.72 -111.26,880.66 -221.84,1766.98 -332.76,2656.03 -113.69,-866.81 -224.87,-1738.44 -335.52,-2614.32 -111.17,-879.97 -221.84,-1766.98 -332.76,-2657.43 -302.25,0 -604.51,0 -903.98,0 160.83,1155.29 321.04,2302.33 482.49,3440.12 160.2,1128.97 324.44,2250.78 488.04,3362.96 393.76,-61.85 790.29,-124.41 1186.83,-187.67 160.83,-1123.3 323.8,-2239.08 485.27,-3345.59 160.19,-1097.69 324.43,-2188.21 488.04,-3269.82 -296.71,0 -593.42,0 -887.35,0zm3330.32 6080.17c299.48,-44.49 601.74,-89.68 903.99,-132.77 -163.61,-971.07 -327.87,-1951.06 -488.04,-2937.55 -161.48,-994.58 -321.66,-1998.45 -482.5,-3009.85 -396.53,0 -793.06,0 -1189.6,0 -163.6,1050.32 -327.93,2109.56 -488.04,3175.29 -161.54,1075.21 -321.66,2159.02 -482.49,3250.34 293.93,-46.57 590.64,-93.14 887.34,-139.71 63.78,-471.98 127.56,-944.66 194.11,-1415.25 316.12,-37.54 635.01,-76.46 953.9,-114 63.78,442.1 127.56,884.18 191.33,1323.5zm-1028.76 -2131.92c58.23,-440.01 119.15,-879.34 177.47,-1316.54 58.14,-435.85 122.01,-872.37 183.01,-1306.81 58.23,428.88 119.15,857.09 177.47,1283.18 58.13,424.72 122.01,848.04 183.02,1269.27 -241.25,23.64 -482.5,47.27 -720.97,70.9zm2620.44 1903.23c293.94,-38.24 590.64,-77.16 887.35,-114.7 0,-955.09 0,-1911.56 0,-2867.34 0,-955.79 0,-1912.96 0,-2869.44 -296.71,0 -593.41,0 -887.35,0 0,975.94 0,1951.89 0,2926.43 0,975.25 0,1950.49 0,2925.05zm1857.89 -228c288.38,-30.59 579.55,-62.56 870.71,-89.67 0,-589.46 0,-1180.3 0,-1769.76 0,-590.15 0,-1180.3 0,-1771.16 194.1,582.51 390.88,1160.89 585.09,1734.31 194,572.81 390.99,1142.78 587.87,1708.6 310.57,-22.94 623.91,-40.31 937.26,-57.7 0,-895.3 0,-1792 0,-2688 0,-896 0,-1793.4 0,-2690.1 -291.16,0 -582.32,0 -870.71,0 0,608.93 0,1216.46 0,1823.98 0,607.53 0,1215.76 0,1823.29 -188.56,-599.89 -380.28,-1202.41 -565.68,-1808.69 -186.16,-608.77 -377.13,-1221.31 -562.92,-1838.58 -327.2,0 -654.41,0 -981.62,0 0,937.72 0,1876.12 0,2812.44 0,937.02 0,1874.72 0,2811.04zm5895.31 -285c299.48,10.42 601.73,20.86 903.98,33.37 -163.6,-901.57 -327.15,-1799.67 -488.04,-2694.26 -160.77,-893.93 -321.66,-1786.44 -482.49,-2677.59 -396.53,0 -793.07,0 -1189.6,0 -163.61,889.06 -327.34,1778.78 -488.04,2668.55 -160.95,891.1 -321.67,1785.74 -482.5,2681.05 293.94,-10.43 590.64,-15.98 887.35,-19.46 63.78,-393.44 127.56,-787.56 191.33,-1181.69 316.12,-0.69 635.01,2.08 953.9,4.86 63.78,394.83 127.56,789.65 194.11,1185.17zm-1028.77 -1967.17c58.23,-371.2 119.19,-743.09 177.47,-1114.27 58.17,-370.5 119.24,-743.08 180.24,-1114.96 58.24,372.58 119.24,745.17 177.47,1117.05 58.23,371.88 122.01,744.46 183.02,1116.35 -241.25,-1.4 -479.72,-3.47 -718.2,-4.17zm2620.45 2036.69c293.93,20.85 590.64,41.7 887.35,63.25 0,-383.7 0,-768.1 0,-1151.81 0,-384.4 0,-768.79 0,-1153.19 418.71,20.85 837.43,42.4 1256.15,66.73 0,-265.53 0,-531.76 0,-797.99 -418.72,-18.08 -837.44,-34.06 -1256.15,-50.05 0,-266.92 0,-534.54 0,-801.47 0,-266.92 0,-533.85 0,-801.47 529.63,6.96 1059.27,13.91 1588.9,21.56 0,-267.62 0,-535.24 0,-803.56 -826.34,0 -1652.68,0 -2476.25,0 0,901.57 0,1803.83 0,2704.7 0,900.86 0,1802.43 0,2703.3zm3163.95 290.56c823.57,99.39 1647.13,206.43 2470.7,319.74 0,-286.38 0,-572.78 0,-859.16 -529.63,-63.26 -1056.49,-123.73 -1583.36,-181.42 0,-829.27 0,-1659.24 0,-2488.52 0,-828.57 0,-1659.22 0,-2489.2 -296.7,0 -593.41,0 -887.34,0 0,950.23 0,1901.14 0,2849.98 0,949.52 0,1899.74 0,2848.58zm3155.62 417.75c293.94,43.11 590.65,86.89 887.35,130.68 0,-1040.58 0,-2081.86 0,-3122.45 0,-1040.58 0,-2082.56 0,-3124.54 -296.7,0 -593.41,0 -887.35,0 0,1019.74 0,2040.17 0,3059.2 0,1019.04 0,2038.77 0,3057.11zm4899.83 727.09c-191.34,-606.83 -381.89,-1209.12 -574.01,-1806.6 -190.54,-592.55 -382.67,-1180.99 -574,-1764.89 183.01,-533.15 366.65,-1072.31 549.05,-1615.45 183.63,-546.79 368.8,-1099.67 554.59,-1656.46 -307.8,0 -615.6,0 -920.63,0 -110.91,357.3 -218.97,713.24 -327.2,1065.61 -108.05,351.76 -216.3,701.37 -324.44,1049.62 -116.46,-357.28 -235.41,-712.61 -349.39,-1065.61 -113.39,-351.14 -232.93,-701.37 -346.62,-1049.62 -318.89,0 -637.78,0 -953.9,0 180.24,514.39 361.22,1033.33 540.73,1555.67 180.97,526.58 363.25,1059.35 546.27,1594.59 -194.11,545.67 -390.34,1087.45 -582.32,1621.7 -190.69,530.65 -388.22,1056.58 -579.55,1575.83 305.02,46.57 612.82,92.44 920.62,139.03 116.47,-359.39 238.68,-721.47 354.94,-1085.78 116.65,-365.55 238.47,-734.73 357.71,-1104.54 124.78,396.92 249.96,795.07 374.35,1194.91 125.16,402.31 249.57,807.72 377.12,1213.66 318.89,46.58 637.78,92.46 956.68,138.33z"/>
 </g>
</svg>
